name C:\Users\u0101727\Documents\MyRepositories\paper-ad\predictivesimulations_2d/Results/PredSim_2D/IK_c10.mot
datacolumns 11
datarows 38
range 1.27598452 1.63095766
endheader
time	pelvis_tilt	pelvis_tx	pelvis_ty	hip_flexion_l	hip_flexion_r	knee_angle_l	knee_angle_r	ankle_angle_l	ankle_angle_r	lumbar_extension	
          1.27598452	        -15.05769732	          1.69371661	          0.90069174	         33.15604140	         10.32301886	        -37.56329951	         -7.28125650	         15.70413832	         11.32255380	          9.36304782	
          1.28557839	        -15.05696148	          1.70570549	          0.89982997	         34.12485399	          9.54719539	        -36.09083316	         -7.32926076	         15.98928079	         11.33364014	          9.32323585	
          1.29517226	        -15.05728808	          1.71775013	          0.89891057	         35.03254597	          8.78906201	        -34.50175699	         -7.41310386	         16.19355998	         11.33229192	          9.28668551	
          1.30476613	        -15.05907292	          1.72985699	          0.89793248	         35.87559110	          8.04758016	        -32.80366097	         -7.53172546	         16.32608873	         11.32212200	          9.25370809	
          1.31436000	        -15.06264218	          1.74203415	          0.89689457	         36.64940159	          7.32238889	        -31.00806049	         -7.68537742	         16.39564182	         11.30397705	          9.22468656	
          1.32395387	        -15.06807130	          1.75429352	          0.89579944	         37.34727057	          6.61437646	        -29.14127482	         -7.87768788	         16.41035590	         11.27630705	          9.20020726	
          1.33354773	        -15.07539523	          1.76665328	          0.89465940	         37.95618329	          5.92556277	        -27.23754598	         -8.11486460	         16.37751029	         11.23313871	          9.18157375	
          1.34314160	        -15.08464125	          1.77913488	          0.89349606	         38.46032476	          5.25909636	        -25.32905663	         -8.40401864	         16.30349595	         11.16210105	          9.17050669	
          1.35273547	        -15.09549150	          1.79175703	          0.89233195	         38.85029773	          4.61938212	        -23.44359750	         -8.75361445	         16.19370498	         11.04690744	          9.16818824	
          1.36232934	        -15.10714945	          1.80453431	          0.89118507	         39.12604359	          4.01165489	        -21.60306919	         -9.17345953	         16.05226718	         10.87102886	          9.17502146	
          1.37192321	        -15.11839999	          1.81747956	          0.89006973	         39.29447739	          3.44120144	        -19.82903376	         -9.67388427	         15.88178687	         10.62020513	          9.19093236	
          1.38151708	        -15.12801903	          1.83060665	          0.88899813	         39.36280549	          2.91293222	        -18.13621200	        -10.26461987	         15.68345991	         10.28156825	          9.21601120	
          1.39111095	        -15.13486170	          1.84393005	          0.88797946	         39.33786644	          2.43127417	        -16.53640796	        -10.95422147	         15.45717805	          9.84293901	          9.25049750	
          1.40070481	        -15.13767338	          1.85746396	          0.88701901	         39.22727544	          2.00083405	        -15.04670138	        -11.75167089	         15.20165035	          9.29346436	          9.29453055	
          1.41029868	        -15.13518981	          1.87122280	          0.88611784	         39.03607415	          1.62712457	        -13.68162690	        -12.66724617	         14.91485157	          8.62216245	          9.34840064	
          1.41989255	        -15.12600540	          1.88522017	          0.88527166	         38.76901648	          1.31605113	        -12.46098881	        -13.71187294	         14.59390264	          7.81858809	          9.41235944	
          1.42948642	        -15.10856281	          1.89946780	          0.88446931	         38.43146974	          1.07329200	        -11.41358653	        -14.89578952	         14.23500764	          6.87521828	          9.48655625	
          1.43908029	        -15.08142041	          1.91397678	          0.88369168	         38.02378507	          0.90364766	        -10.57032511	        -16.22829020	         13.83380743	          5.79203520	          9.57157911	
          1.44867416	        -15.04338260	          1.92875542	          0.88290727	         37.53889939	          0.81003107	         -9.96487384	        -17.72233592	         13.38532847	          4.59137189	          9.66848895	
          1.45826803	        -14.99428951	          1.94379748	          0.88207227	         36.95880269	          0.79517010	         -9.64538672	        -19.38389791	         12.88477930	          3.28679624	          9.77843078	
          1.46786190	        -14.93670199	          1.95908588	          0.88121001	         36.21544783	          0.86630968	         -9.73235282	        -21.20982526	         12.33008318	          1.85819291	          9.90538118	
          1.47745576	        -14.87882799	          1.97443477	          0.88044734	         35.35202724	          1.02808125	        -10.04618318	        -23.18151008	         11.76055082	          0.39089981	         10.03990879	
          1.48704963	        -14.83163915	          1.98950347	          0.88001354	         34.49373094	          1.30733641	        -10.32603993	        -25.20658322	         11.21009959	         -0.89329447	         10.15876613	
          1.49664350	        -14.80370345	          2.00404484	          0.88016991	         33.67777360	          1.73233319	        -10.58398018	        -27.14484374	         10.67862394	         -1.89633143	         10.24803495	
          1.50623737	        -14.79737174	          2.01799584	          0.88107202	         32.90660472	          2.29898079	        -10.81484528	        -28.93359349	         10.18079800	         -2.64765161	         10.30657510	
          1.51583124	        -14.80795997	          2.03143966	          0.88267922	         32.16169495	          2.99051486	        -11.00662809	        -30.59352165	          9.73291310	         -3.15665987	         10.34053349	
          1.52542511	        -14.82887356	          2.04450052	          0.88478196	         31.42192432	          3.78639150	        -11.15040863	        -32.15374356	          9.34647185	         -3.43608534	         10.35693856	
          1.53501898	        -14.85474515	          2.05728592	          0.88714786	         30.67050000	          4.67104560	        -11.23940415	        -33.63184524	          9.02777149	         -3.50150518	         10.36110764	
          1.54461284	        -14.88213675	          2.06987012	          0.88959429	         29.89797767	          5.63244584	        -11.27170292	        -35.03629304	          8.77844228	         -3.36794967	         10.35624190	
          1.55420671	        -14.90915463	          2.08230010	          0.89199767	         29.09982607	          6.66158087	        -11.24773868	        -36.36841416	          8.59747831	         -3.05172581	         10.34410133	
          1.56380058	        -14.93483564	          2.09460596	          0.89427881	         28.27449388	          7.75104214	        -11.16951407	        -37.62510087	          8.48226336	         -2.56959419	         10.32569449	
          1.57339445	        -14.95869231	          2.10680800	          0.89638732	         27.42235337	          8.89464927	        -11.04050535	        -38.80146451	          8.42905731	         -1.93843498	         10.30163866	
          1.58298832	        -14.98045871	          2.11892128	          0.89829075	         26.54505486	         10.08685519	        -10.86555418	        -39.89141281	          8.43332023	         -1.17519978	         10.27238512	
          1.59258219	        -14.99996342	          2.13095823	          0.89996814	         25.64519039	         11.32230333	        -10.65069649	        -40.88819217	          8.48992538	         -0.29705466	         10.23833924	
          1.60217606	        -15.01708364	          2.14292973	          0.90140684	         24.72606781	         12.59558334	        -10.40293595	        -41.78462795	          8.59332559	          0.67861146	         10.19991462	
          1.61176992	        -15.03173537	          2.15484533	          0.90260194	         23.79161397	         13.90128456	        -10.13023228	        -42.57311435	          8.73771585	          1.73422938	         10.15751278	
          1.62136379	        -15.04389868	          2.16671262	          0.90355670	         22.84630253	         15.23444053	         -9.84048060	        -43.24550676	          8.91723492	          2.85212920	         10.11144433	
          1.63095766	        -15.05369313	          2.17853887	          0.90428166	         21.89406797	         16.58910978	         -9.54077910	        -43.79428369	          9.12545691	          4.01449734	         10.06217829	
